<svg width="12" height="13" viewBox="0 0 12 13" fill="none" xmlns="http://www.w3.org/2000/svg">
<path d="M11.3265 11.1355C11.6979 11.1355 12 11.4415 12 11.8178C12 12.1947 11.6979 12.5 11.3265 12.5H7.51979C7.14839 12.5 6.84631 12.1947 6.84631 11.8178C6.84631 11.4415 7.14839 11.1355 7.51979 11.1355H11.3265ZM8.68657 0.966042L9.66991 1.74719C10.0732 2.06251 10.342 2.47817 10.4339 2.91533C10.5401 3.3962 10.4269 3.86847 10.1085 4.27696L4.25093 11.8519C3.98211 12.1959 3.58594 12.3894 3.16148 12.3966L0.82693 12.4253C0.699591 12.4253 0.593475 12.3393 0.565178 12.2174L0.034599 9.91698C-0.057368 9.49416 0.034599 9.05701 0.303426 8.72018L4.45609 3.34532C4.52683 3.25932 4.65417 3.2457 4.73906 3.30948L6.48644 4.69978C6.59963 4.79295 6.75526 4.84311 6.91797 4.82161C7.26462 4.77861 7.49807 4.46329 7.4627 4.12646C7.44148 3.95447 7.35659 3.81114 7.2434 3.70364C7.20802 3.67497 5.54554 2.34201 5.54554 2.34201C5.43943 2.25601 5.41821 2.09835 5.5031 1.99157L6.16102 1.13804C6.76941 0.356891 7.83057 0.285226 8.68657 0.966042Z" fill="#837AED"/>
</svg>
